<svg id="Layer_1" data-name="Layer 1" xmlns="http://www.w3.org/2000/svg" viewBox="0 0 1672.72 1672.72"><defs><style>.cls-1{fill:#231f20;}.cls-2{fill:#f26322;}</style></defs><title>ZionIT-Logo1</title><polygon points="1215.36 709.44 1065.95 886.51 1017.46 886.51 1166.85 709.46 1015.36 530.17 1063.89 530.17 1215.36 709.44"/><polygon points="860.92 530.17 550.05 1178.47 501.54 1178.47 812.41 530.17 860.92 530.17"/><path class="cls-1" d="M264.11,789l120.57-162V574.18H187v52.73H304.44l-121,162v52.72H388.17V789Z"/><path class="cls-2" d="M561.2,574.46V842h72.1V574.46Z"/><path class="cls-2" d="M956,575.94c-84,0-113.84,28.74-113.84,132.27S872,840.47,956,840.47s114.22-28.74,114.22-132.26S1040,575.94,956,575.94Zm0,211.47c-32.41,0-41.26-16.57-41.26-79.2S923.55,629,956,629s41.27,16.58,41.27,79.22S988.39,787.41,956,787.41Z"/><polygon points="575.14 886.23 575.14 886.23 423.65 706.94 573.03 529.9 524.54 529.9 375.14 706.96 526.62 886.23 575.14 886.23"/><path d="M710.77,911v267.49h72.1V911Z"/><path d="M834.53,911V967.2h76.76v211.28h72.88V967.2h77.15V911Z"/><path d="M1416.35,574.59l.28,91v77.5l-28.08-50.49-53.61-96.69c-7.75-14-13.18-21.33-28.3-21.33h-34.11c-16.67,0-25.59,8.92-25.59,25.59V842.09h67.85V708c0-.71,0-1.41,0-2.12h0V674.36l16.79,30.39,0,.09L1347,732.75l1.92,3.46h0l46.85,84.55c7.37,14,13.18,21.32,28.3,21.32h34.5c16.67,0,25.2-8.92,25.2-25.59V574.59Z"/><path class="cls-2" d="M836.36,1619.07a779.23,779.23,0,0,1-437.64-133.69A784.95,784.95,0,0,1,115.17,1141a781.75,781.75,0,0,1,72.17-742.32A784.88,784.88,0,0,1,531.69,115.17,781.69,781.69,0,0,1,1274,187.34a784.88,784.88,0,0,1,283.55,344.35A781.69,781.69,0,0,1,1485.38,1274,784.95,784.95,0,0,1,1141,1557.55,777.71,777.71,0,0,1,836.36,1619.07Zm0-1513c-402.68,0-730.29,327.61-730.29,730.29s327.61,730.29,730.29,730.29S1566.65,1239,1566.65,836.36,1239,106.07,836.36,106.07Z"/></svg>